<svg width="99" height="99" fill="none" xmlns="http://www.w3.org/2000/svg"><g filter="url(#filter0_d_280_704)"><rect width="53" height="53" rx="26.5" transform="matrix(-1 0 0 1 76 23)" fill="#fff"/><path d="M54.232 37.347a1.319 1.319 0 011.82.032 1.286 1.286 0 01.031 1.796L45.66 49.468 56.083 59.76a1.292 1.292 0 01.417.923 1.278 1.278 0 01-.384.937 1.31 1.31 0 01-.949.379 1.325 1.325 0 01-.935-.412L42.883 50.382a1.285 1.285 0 010-1.828l11.35-11.207z" fill="#E3010F"/></g><defs><filter id="filter0_d_280_704" x="0" y="0" width="99" height="99" filterUnits="userSpaceOnUse" color-interpolation-filters="sRGB"><feFlood flood-opacity="0" result="BackgroundImageFix"/><feColorMatrix in="SourceAlpha" values="0 0 0 0 0 0 0 0 0 0 0 0 0 0 0 0 0 0 127 0" result="hardAlpha"/><feOffset/><feGaussianBlur stdDeviation="11.5"/><feComposite in2="hardAlpha" operator="out"/><feColorMatrix values="0 0 0 0 0.579167 0 0 0 0 0.579167 0 0 0 0 0.579167 0 0 0 0.17 0"/><feBlend in2="BackgroundImageFix" result="effect1_dropShadow_280_704"/><feBlend in="SourceGraphic" in2="effect1_dropShadow_280_704" result="shape"/></filter></defs></svg>