<svg width="44" height="33" fill="none" xmlns="http://www.w3.org/2000/svg"><path d="M2.001 11.26a.514.514 0 011.027 0v18.573c0 .588.242 1.123.628 1.51.388.388.923.63 1.51.63H31.7c.588 0 1.122-.242 1.51-.63a2.13 2.13 0 00.629-1.51V11.259a.514.514 0 011.027 0v18.574a3.16 3.16 0 01-.93 2.237A3.157 3.157 0 0131.7 33H5.167a3.156 3.156 0 01-2.237-.93 3.159 3.159 0 01-.929-2.237V11.259z" fill="#E3010F"/><path d="M11.95 13.1H7.007v5.605h4.943v-5.606zm-5.456-1.028h5.969c.284 0 .514.231.514.514v6.632a.514.514 0 01-.514.514H6.494a.514.514 0 01-.514-.514v-6.632a.513.513 0 01.514-.514zM29.86 13.1h-4.942v5.605h4.942v-5.606zm-5.457-1.028h5.971c.284 0 .513.231.513.514v6.632c0 .284-.23.514-.513.514h-5.97a.515.515 0 01-.514-.514v-6.632c0-.283.23-.514.513-.514zM20.904 13.1h-4.942v5.605h4.942v-5.606zm-5.456-1.028h5.971c.284 0 .513.231.513.514v6.632a.514.514 0 01-.513.514h-5.971a.514.514 0 01-.513-.514v-6.632c0-.283.23-.514.513-.514zM11.95 22.387H7.007v5.606h4.943v-5.605zM6.494 21.36h5.969c.284 0 .514.231.514.514v6.634a.514.514 0 01-.514.513H6.494a.514.514 0 01-.514-.514v-6.632a.514.514 0 01.514-.515zm23.366 1.027h-4.942v5.606h4.942v-5.605zm-5.457-1.028h5.971c.284 0 .513.231.513.514v6.634c0 .283-.23.513-.513.513h-5.97a.515.515 0 01-.514-.514v-6.632c0-.284.23-.515.513-.515zm-3.499 1.028h-4.942v5.606h4.942v-5.605zm-5.456-1.028h5.971c.284 0 .513.231.513.514v6.634a.514.514 0 01-.513.513h-5.971a.514.514 0 01-.513-.514v-6.632c0-.284.23-.515.513-.515zM26.65 6.053a.514.514 0 01-1.027 0V.513a.513.513 0 111.026 0v5.54h.001zm-15.406 0a.514.514 0 01-1.027 0V.513a.513.513 0 111.027 0v5.54z" fill="#E3010F"/><path d="M10.73 2.57a.513.513 0 110 1.028H5.166c-.583 0-1.118.243-1.508.632l-.025.024a2.13 2.13 0 00-.607 1.483v2.356h30.81V5.737a2.13 2.13 0 00-.63-1.507l-.024-.026a2.134 2.134 0 00-1.485-.606h-3.512a.514.514 0 010-1.027h3.512c.846 0 1.627.345 2.2.9l.035.032a3.16 3.16 0 01.932 2.234v2.869a.514.514 0 01-.514.514H2.513A.513.513 0 012 8.606v-2.87c0-.847.345-1.626.9-2.198l.032-.036a3.158 3.158 0 012.235-.932h5.562zm15.405 0H12.782a.513.513 0 100 1.028h13.353a.514.514 0 000-1.027z" fill="#E3010F"/></svg>