<svg width="42" height="45" fill="none" xmlns="http://www.w3.org/2000/svg"><path d="M35.286 31.147a1.394 1.394 0 10-.869 2.65c3.19 1.045 4.616 2.294 4.616 3.066 0 1.942-7.228 4.879-18.122 4.879-10.895 0-18.123-2.937-18.123-4.88 0-.771 1.428-2.02 4.617-3.065a1.394 1.394 0 10-.869-2.65C1.134 32.92 0 35.233 0 36.862c0 5.033 10.52 7.668 20.91 7.668 10.392 0 20.912-2.635 20.912-7.668 0-1.63-1.134-3.943-6.536-5.715z" fill="#E3010F"/><path d="M20.04 38.648a1.395 1.395 0 001.742 0c.51-.408 12.472-10.121 12.472-22.597a13.343 13.343 0 10-26.686 0c0 12.476 11.963 22.19 12.473 22.598zm-3.908-22.597a4.78 4.78 0 119.56 0 4.78 4.78 0 01-9.56 0z" fill="#E3010F"/></svg>