<svg width="42" height="44" fill="none" xmlns="http://www.w3.org/2000/svg"><path d="M21 5.063c9.89 0 17.938 8.047 17.938 17.937S30.89 40.938 21 40.938C11.11 40.938 3.062 32.89 3.062 23 3.063 13.11 11.11 5.062 21 5.062zM21 2.5C9.679 2.5.5 11.679.5 23S9.679 43.5 21 43.5 41.5 34.321 41.5 23 32.321 2.5 21 2.5zm11.429 27.354l-.116-.35c-.27-.806-1.16-1.647-1.981-1.872l-3.03-.828c-.822-.223-1.993.077-2.596.68L23.61 28.58a11.641 11.641 0 01-8.185-8.188l1.096-1.096c.6-.6.9-1.771.678-2.595l-.826-3.03c-.223-.82-1.069-1.712-1.874-1.982l-.346-.115c-.808-.27-1.962.002-2.562.605l-1.642 1.642c-.293.29-.48 1.124-.48 1.126a19.395 19.395 0 005.67 13.914 19.374 19.374 0 0013.866 5.668c.028 0 .886-.183 1.179-.476l1.642-1.641c.6-.598.87-1.752.603-2.558z" fill="#E3010F"/></svg>