<svg width="44" height="27" fill="none" xmlns="http://www.w3.org/2000/svg"><path d="M42.875 4.048H34.75L24.733.779a4.258 4.258 0 00-3.63.467l-6.035 3.878a.59.59 0 00.636.991l6.036-3.872a3.078 3.078 0 012.627-.333l10.11 3.289c.058.019.12.029.182.028h7.629v9.899h-4.384a.59.59 0 00-.523.318 5.929 5.929 0 01-2.87 2.475V15.27c.944-.402 1.952-1.103 2.596-2.325a.589.589 0 00-.697-.84.59.59 0 00-.347.288c-1.12 2.142-3.906 2.237-3.921 2.237-3.731 0-4.808-2.604-4.851-2.712a.59.59 0 00-.55-.378h-5.537a1.572 1.572 0 01-1.49-2.185 1.575 1.575 0 011.49-.961h6.609a.59.59 0 100-1.179h-6.609a2.752 2.752 0 100 5.504h5.168c.492.903 2.069 3.09 5.782 3.09a6.364 6.364 0 001.178-.163v8.735a.87.87 0 01-.87.87H2.048a.871.871 0 01-.87-.867V9.264a.87.87 0 01.87-.87h15.028a.59.59 0 100-1.179H2.048A2.055 2.055 0 000 9.263v15.12a2.055 2.055 0 002.048 2.049h30.414a2.055 2.055 0 002.049-2.048v-5.216c2.113-.673 3.295-2.198 3.727-2.865h4.637a.59.59 0 00.59-.589V4.638a.59.59 0 00-.59-.59z" fill="#E3010F"/><path d="M3.997 19.93v-6.213a3.157 3.157 0 002.505-2.505h10.064a.59.59 0 000-1.179H5.968a.59.59 0 00-.59.59 1.972 1.972 0 01-1.97 1.975.59.59 0 00-.586.585v7.28a.589.589 0 00.59.59 1.973 1.973 0 011.97 1.97.589.589 0 00.59.59h22.57a.588.588 0 00.59-.59 1.973 1.973 0 011.97-1.97.588.588 0 00.59-.59V17.8a.59.59 0 10-1.178 0v2.13a3.16 3.16 0 00-2.505 2.504H6.502a3.16 3.16 0 00-2.505-2.505z" fill="#E3010F"/><path d="M17.67 17.89c1.408 0 2.392-.981 2.392-2.393s-.984-2.363-2.393-2.363h-2.703a.198.198 0 00-.198.198v3.413h-.86a.198.198 0 00-.199.198v.75c0 .109.089.198.199.198h.86v.528h-.86a.198.198 0 00-.199.198v.66c0 .11.089.2.199.2h.86v.858c0 .11.089.198.198.198h.97a.198.198 0 00.198-.198v-.859h2.67a.2.2 0 00.2-.198v-.66a.198.198 0 00-.2-.199h-2.67v-.528h1.535zm-1.536-3.62h1.302c.773 0 1.24.48 1.24 1.227 0 .757-.467 1.248-1.26 1.248h-1.282V14.27zm-5.786 2.137a.592.592 0 00-.16.527.514.514 0 00.034.11.48.48 0 00.055.102.545.545 0 00.16.162.6.6 0 00.82-.162.834.834 0 00.054-.103.538.538 0 00.044-.225.588.588 0 00-1.005-.41h-.002zm12.906.744a.588.588 0 001.08-.326.59.59 0 10-1.178 0 .615.615 0 00.045.223.77.77 0 00.053.103z" fill="#E3010F"/></svg>