<svg width="60" height="60" fill="none" xmlns="http://www.w3.org/2000/svg"><path d="M23.858 12.833L24.824 6h10.352l.966 6.833a19.126 19.126 0 015.832 3.416l6.35-2.528 5.176 8.883-5.383 3.894a18.03 18.03 0 010 6.833l5.383 4.168-5.176 8.883-6.35-2.529a15.808 15.808 0 01-2.76 1.913 16.396 16.396 0 01-3.072 1.401L35.176 54H24.824l-.966-6.833a19.126 19.126 0 01-5.832-3.416l-6.35 2.528L6.5 37.396l5.383-4.065a18.03 18.03 0 010-6.833l-5.383-4.1 5.176-8.882 6.35 2.528a15.808 15.808 0 012.76-1.913 16.43 16.43 0 013.072-1.298v0z" stroke="#E3010F" stroke-width="3" stroke-linecap="round" stroke-linejoin="round"/><path d="M30 39c4.694 0 8.5-4.03 8.5-9s-3.806-9-8.5-9-8.5 4.03-8.5 9 3.806 9 8.5 9z" stroke="#E3010F" stroke-width="3" stroke-linecap="round" stroke-linejoin="round"/></svg>