<svg width="60" height="60" fill="none" xmlns="http://www.w3.org/2000/svg"><path d="M56.803 27.01l-11.778-8.515a1.064 1.064 0 00-1.687.863v6.431l-10.09-7.294a1.064 1.064 0 00-1.687.863v6.431l-10.09-7.294a1.064 1.064 0 00-1.688.863v7.45h-2.199l-1.4-20.294a1.065 1.065 0 00-1.06-.99h-5.58c-.56 0-1.023.432-1.062.99L7.084 26.807H3.821c-.588 0-1.065.477-1.065 1.065v25.54c0 .588.477 1.065 1.065 1.065h52.358c.588 0 1.064-.477 1.064-1.065v-25.54c0-.342-.164-.663-.44-.863zM9.364 24.678h2.271a1.064 1.064 0 000-2.128H9.511l1.028-14.9h3.59l1.322 19.156H9.218l.146-2.128zm10.42 6.385h-5.927a1.064 1.064 0 000 2.129h5.926v2.128h-5.926a1.064 1.064 0 000 2.128h5.926v2.129H16.94a1.064 1.064 0 000 2.128h2.844v2.128h-5.926a1.064 1.064 0 000 2.129h5.926v2.128h-5.926a1.064 1.064 0 000 2.128h5.926v2.13H4.885V28.935h14.898v2.128zm35.331 21.284H21.912V21.44l10.09 7.294a1.064 1.064 0 001.687-.863v-6.43l10.09 7.293a1.064 1.064 0 001.687-.863v-6.43l9.649 6.974v23.933z" fill="#E3010F"/><path d="M13.857 41.706h.025a1.064 1.064 0 100-2.128h-.025a1.064 1.064 0 000 2.128zm20.399-6.386H30c-.587 0-1.064.477-1.064 1.065v4.257c0 .587.477 1.064 1.064 1.064h4.257c.588 0 1.065-.477 1.065-1.065v-4.256c0-.588-.477-1.064-1.065-1.064zm-1.064 4.257h-2.128V37.45h2.128v2.128zm8.514-3.192v4.257c0 .587.476 1.064 1.064 1.064h4.257c.587 0 1.064-.477 1.064-1.065v-4.256c0-.588-.477-1.064-1.064-1.064H42.77c-.588 0-1.064.476-1.064 1.064zm2.128 1.064h2.129v2.128h-2.129V37.45zM36.99 48.091h-.025a1.064 1.064 0 000 2.129h.025a1.064 1.064 0 100-2.129zm-3.083 0H30a1.064 1.064 0 100 2.129h3.909a1.064 1.064 0 000-2.129z" fill="#E3010F"/></svg>