<svg width="61" height="60" fill="none" xmlns="http://www.w3.org/2000/svg"><path d="M30.5 37.273a.997.997 0 10.001 1.993.997.997 0 000-1.993z" fill="#E3010F"/><path d="M43.452 47.535h-.1l-.799-7.444a12.107 12.107 0 00-3.965-7.697 12.113 12.113 0 00-3.274-2.096 12.135 12.135 0 007.223-9.662l.002-.014.002-.014.014-.113.803-8.03h.094a3.96 3.96 0 002.818-1.168 3.959 3.959 0 001.167-2.818 3.99 3.99 0 00-3.985-3.985H17.548a3.96 3.96 0 00-2.818 1.168 3.959 3.959 0 00-1.168 2.817 3.99 3.99 0 003.986 3.986h.094l.804 8.036.013.104.002.02.002.01a12.135 12.135 0 007.22 9.661 12.116 12.116 0 00-7.237 9.8l-.797 7.44h-.101a3.96 3.96 0 00-2.818 1.167 3.959 3.959 0 00-1.168 2.818 3.99 3.99 0 003.986 3.985h25.904a3.96 3.96 0 002.818-1.168 3.959 3.959 0 001.167-2.817 3.99 3.99 0 00-3.985-3.986zM17.548 10.472a1.995 1.995 0 01-1.993-1.993c0-.531.208-1.032.584-1.408a1.98 1.98 0 011.409-.584h25.904c1.099 0 1.993.894 1.993 1.992a1.98 1.98 0 01-.584 1.41 1.98 1.98 0 01-1.409.583H17.548zm2.097 1.993h21.71l-.705 7.048h-20.3l-.705-7.048zm.996 9.04H40.36a10.142 10.142 0 01-9.859 7.798 10.142 10.142 0 01-9.859-7.798zm-.214 18.806a10.123 10.123 0 019.077-8.967v2.94a.996.996 0 101.992 0v-2.939c2.135.21 4.152 1.09 5.763 2.534a10.115 10.115 0 013.313 6.428l.692 6.454-9.798-5.262a.994.994 0 00-.23-.089 2.994 2.994 0 00-1.484.012 1 1 0 00-.216.085l-9.8 5.255.691-6.45zm18.068 7.224H22.51l7.846-4.207a.98.98 0 01.296-.003l7.842 4.21zm6.366 5.394a1.98 1.98 0 01-1.409.584H17.548a1.995 1.995 0 01-1.993-1.992c0-.532.208-1.032.584-1.41a1.98 1.98 0 011.409-.583h25.904c1.099 0 1.993.894 1.993 1.993a1.98 1.98 0 01-.584 1.408z" fill="#E3010F"/></svg>