<svg width="61" height="60" fill="none" xmlns="http://www.w3.org/2000/svg"><path d="M43.092 38.977c2.633 0 4.473-1.762 4.473-4.294 0-2.533-1.84-4.24-4.473-4.24h-5.053a.364.364 0 00-.371.356v6.122H36.06a.364.364 0 00-.372.356v1.344c0 .197.167.356.372.356h1.608v.948H36.06a.364.364 0 00-.372.356v1.185c0 .196.167.355.372.355h1.608v1.541c0 .196.166.356.371.356h1.811c.205 0 .371-.16.371-.356v-1.54h4.994c.205 0 .37-.16.37-.356V40.28a.364.364 0 00-.37-.356H40.22v-.948h2.87zm-2.87-6.497h2.434c1.445 0 2.316.863 2.316 2.203 0 1.358-.87 2.238-2.355 2.238h-2.395v-4.44z" fill="#E3010F"/><path d="M41.389 22.155H35.78v-5.696c0-.294-.116-.576-.322-.784a1.096 1.096 0 00-.778-.324h-1.363V9.433c0-.294-.116-.576-.322-.784a1.096 1.096 0 00-.778-.324H5.822c-.291 0-.571.116-.777.324-.206.208-.322.49-.322.784v6.804a1.116 1.116 0 00.322.784 1.098 1.098 0 00.777.324h1.452v5.918c0 .294.116.576.322.784.206.208.486.324.778.324h1.1v4.61h-3.3c-.291 0-.571.117-.777.325a1.11 1.11 0 00-.322.784v20.346c0 .294.115.576.322.784.206.208.486.324.777.324H32.57c.291 0 .571-.116.777-.324.207-.208.323-.49.323-.784v-1.13a14.546 14.546 0 0013.102 1.43 14.642 14.642 0 005.62-3.808 14.791 14.791 0 003.32-5.948c.63-2.217.737-4.552.31-6.817a14.816 14.816 0 00-2.766-6.23 14.672 14.672 0 00-5.252-4.31 14.555 14.555 0 00-6.614-1.468zM6.922 10.541h24.195v4.588H6.922v-4.588zm2.552 7.026h24.195v4.588H9.474v-4.588zm2.2 6.804h21.995a14.791 14.791 0 00-4.62 4.588H11.674v-4.588zm15.396 18.22H7.274v-4.589h19.444a14.741 14.741 0 001.078 4.588h-.726zM7.274 31.175h20.61a14.744 14.744 0 00-1.1 4.588H7.274v-4.588zM31.47 49.394H7.274v-4.587h21.754a14.76 14.76 0 002.353 2.859l.088 1.728zm10.008 0a12.332 12.332 0 01-6.207-1.67 12.453 12.453 0 01-4.546-4.574 12.576 12.576 0 01-.003-12.506c.044-.063.08-.13.11-.2a12.448 12.448 0 014.597-4.474 12.331 12.331 0 0112.35.168 12.457 12.457 0 014.476 4.598 12.577 12.577 0 01-.074 12.446 12.453 12.453 0 01-4.53 4.544 12.333 12.333 0 01-6.173 1.668z" fill="#E3010F"/></svg>