<svg width="44" height="33" fill="none" xmlns="http://www.w3.org/2000/svg"><path d="M11.558 15.982l-.711 5.13a1.054 1.054 0 001.504 1.093l4.644-2.262 4.658 2.262a1.054 1.054 0 001.504-1.094l-.715-5.115 3.59-3.73a1.054 1.054 0 00-.575-1.77l-5.086-.9-2.44-4.567a1.053 1.053 0 00-1.859 0l-2.427 4.559-5.098.909a1.055 1.055 0 00-.575 1.768l3.586 3.717zm2.276-5.34a1.05 1.05 0 00.743-.541l2.41-4.568.472-.252-.472.252 2.44 4.568a1.05 1.05 0 00.744.541l5.089.88-3.59 3.731a1.048 1.048 0 00-.285.877l.736 5.11-4.659-2.26a1.046 1.046 0 00-.92 0l-4.634 2.279.712-5.131a1.05 1.05 0 00-.285-.875l-3.6-3.702 5.099-.909z" fill="#E3010F"/><path d="M30.018 16.497a13.27 13.27 0 00.375-3.106 13.391 13.391 0 10-26.783 0c.002 1.047.128 2.09.375 3.106a5.88 5.88 0 006.053 9.875v5.231a.536.536 0 00.623.529l6.34-1.057 6.34 1.057a.535.535 0 00.623-.528v-5.232a5.88 5.88 0 006.054-9.875zM17 1.071a12.334 12.334 0 0112.32 12.32 12.364 12.364 0 01-6.16 10.667l-.004.003c-.261.155-.537.293-.772.408a12.293 12.293 0 01-12.567-1.072A12.364 12.364 0 014.681 13.39a12.334 12.334 0 0112.32-12.32zm-9.106 24.64a4.82 4.82 0 01-3.581-8.047c.01.033.026.065.037.098.114.328.237.653.376.971l.037.08c.14.317.293.627.458.932l.043.081c.168.306.35.603.542.895l.088.135c.19.283.392.558.603.826l.104.13c.218.269.445.531.684.783l.078.08c.505.526 1.05 1.008 1.634 1.444.034.026.068.053.103.078.277.204.563.396.857.576.027.017.052.038.08.054v.382a4.83 4.83 0 01-2.143.502zm3.214-.182v-.116l.038.019a13.197 13.197 0 005.319 1.335v3.311l-5.357.893v-5.442zm11.785 5.442l-5.357-.893v-3.31a13.194 13.194 0 005.32-1.337l.037-.018v5.558zm3.214-5.26a4.83 4.83 0 01-2.143-.502v-.382c.026-.016.05-.035.077-.051.293-.182.58-.374.857-.577.038-.027.074-.056.111-.084.289-.216.57-.44.84-.679l.004-.004c.271-.24.53-.491.78-.751l.085-.088c.237-.25.463-.512.68-.78l.106-.131c.212-.269.413-.545.605-.828l.084-.129c.193-.295.377-.595.547-.904l.033-.063c.17-.314.328-.636.474-.964l.025-.053c.142-.325.268-.657.384-.993.01-.028.023-.055.032-.084a4.82 4.82 0 01-3.581 8.047z" fill="#E3010F"/></svg>