<svg width="195" height="65" fill="none" xmlns="http://www.w3.org/2000/svg"><path fill-rule="evenodd" clip-rule="evenodd" d="M134.614 60.607V6.687h32.647v53.92h-32.647zm4.523-4.404V11.091h23.601v45.112h-23.601z" fill="#E3010F"/><path fill-rule="evenodd" clip-rule="evenodd" d="M134.614 60.613c2.576-7.377 5.155-14.77 7.737-22.183 2.583-7.412 5.187-14.879 7.813-22.4l16.458.05 16.432.048c-2.651 7.477-5.295 14.927-7.932 22.35l-7.861 22.15h-32.647v-.015zm5.789-3.61c2.165-6.174 4.329-12.37 6.493-18.584a9042.531 9042.531 0 016.541-18.72l11.903.038 11.903.032c-2.211 6.251-4.417 12.48-6.617 18.688-2.2 6.207-4.39 12.392-6.568 18.552h-23.655v-.005z" fill="#E3010F"/><path fill-rule="evenodd" clip-rule="evenodd" d="M134.614 60.613l11.265-15.198 11.14-15.03 16.172-.26 16.469-.265a26633.42 26633.42 0 01-11.135 15.29l-11.264 15.463h-32.647zm6.298-2.5l9.42-12.73 9.327-12.612 11.725-.174 11.87-.178a8697.92 8697.92 0 01-9.322 12.774l-9.42 12.893h-23.627l.027.027z" fill="#E3010F"/><path fill-rule="evenodd" clip-rule="evenodd" d="M134.614 60.613l7.38-4.75c2.44-1.58 4.869-3.144 7.299-4.702l7.136-4.594 7.034-4.55H195a3036.33 3036.33 0 00-6.79 4.55l-6.855 4.594-7.034 4.701-7.098 4.75h-32.609zm6.931-1.564l6.119-3.96 6.071-3.928 5.951-3.853 5.898-3.787h22.853l-5.724 3.82-5.789 3.82-5.892 3.928-5.952 3.96h-23.535z" fill="#E3010F"/><path d="M8.02 6.768h5.14v23.06H8.02v-9.096H5.192v9.095H.051V6.767h5.14v8.96h2.83v-8.96zm18.163 5.005h-4.842v3.954h4.512v5.005h-4.512v4.09h4.842v5.01h-9.982V6.768h9.982v5.005zm14.544-5.005h6.39v23.06h-5.173v-11.2l-2.505 11.2h-3.095l-2.505-11.2v11.2h-5.161V6.767h6.39l2.808 14.327L40.71 6.768h.016zm19.115 5.005h-4.87v3.954h4.545v5.005h-4.512v4.09h4.87v5.01H49.86V6.768h9.982v5.005zm15.36 12.985h1.623v8.894h-5.172V29.8h-9.56V6.768h5.14v18.017h2.835V6.768h5.14v18.017l-.006-.027zM93.435 29.8h-5.47l-3.522-7.38v7.38h-5.34V6.768h5.34v7.082l3.29-7.082h5.47l-4.81 11.427 5.042 11.632V29.8zm11.806-23.06h5.069V29.8h-5.172V17.605l-4.328 12.222h-5.075V6.767h5.172v12.185l4.328-12.184.006-.027zM121.294.476h3.625a4.58 4.58 0 01-1.418 3.198 4.666 4.666 0 01-7.905-3.198h3.62a.975.975 0 00.33.66 1.082 1.082 0 001.418 0 .979.979 0 00.33-.66zm1.152 6.293h5.075v23.06h-5.172V17.604l-4.329 12.222h-5.069V6.767h5.167v12.185l4.328-12.184zM.002 52.827v-7.83a11.14 11.14 0 01.606-3.862 6.027 6.027 0 011.624-2.538 6.795 6.795 0 012.164-1.309 7.623 7.623 0 014.956 0 6.588 6.588 0 012.164 1.277 5.804 5.804 0 011.623 2.5c.42 1.239.63 2.538.622 3.846v.774H8.486v-.638c-.065-2.04-.584-3.057-1.547-3.057a1.201 1.201 0 00-1.158.79 6.352 6.352 0 00-.352 2.434v7.391c-.04.834.079 1.668.352 2.456a1.201 1.201 0 001.158.806c.984 0 1.504-1.044 1.547-3.127v-.606h5.275v.806a11.737 11.737 0 01-.622 3.847 5.86 5.86 0 01-1.623 2.505 6.591 6.591 0 01-2.164 1.277 7.623 7.623 0 01-4.956 0 6.893 6.893 0 01-2.164-1.31 6.027 6.027 0 01-1.624-2.537 11.14 11.14 0 01-.606-3.863v-.032zm28.07-15.658v5.108h-3.598v18.395h-5.238V42.277h-3.543v-5.108h12.379zm10.664 23.52l-.774-4.573h-3.246l-.806 4.572h-5.232L32.94 37.17h6.76L44 60.69h-5.264zm-3.495-9.81h2.093l-1.038-7.796-1.082 7.796h.027zm19.331-13.71h5.243v23.52h-5.243v-9.274h-2.89v9.273H46.44V37.17h5.243v9.138h2.89V37.17zm23.665 18.396h1.624v9.197h-5.276v-4.03H67.39v4.03h-5.275v-9.197h.704c1.406-.166 2.11-1.216 2.11-3.15V37.17h13.31v18.396zm-8.656 0h3.397V42.309h-2.802v10.28a6.654 6.654 0 01-.606 2.96l.01.016zm22.323 5.14l-.774-4.572h-3.246l-.806 4.572h-5.243l4.27-23.52h6.751l4.302 23.52h-5.254zm-3.495-9.81h2.12L89.487 43.1l-1.082 7.796h.005zm11.302-13.71h5.47c.742-.004 1.482.058 2.213.184a8.342 8.342 0 012.083.671 6.198 6.198 0 011.786 1.228 5.41 5.41 0 011.19 1.916c.315.85.469 1.75.454 2.656v1.623a7.03 7.03 0 01-.606 3.008 5.16 5.16 0 01-1.623 2.046c-.684.5-1.444.887-2.25 1.147-.852.262-1.734.413-2.624.449h-.839v8.57h-5.243V37.169l-.01.016zm8.116 7.629v-.27a2.471 2.471 0 00-.541-1.732 1.674 1.674 0 00-1.261-.54h-1.082v4.804h1.082a1.654 1.654 0 001.261-.541c.39-.475.584-1.081.541-1.694v-.027zm19.667-7.629v5.108h-3.593v18.395h-5.242V42.293h-3.56v-5.108h12.395z" fill="#E3010F"/></svg>